<mxfile modified="2023-02-18T02:42:22.109Z" host="app.diagrams.net" agent="5.0 (Windows NT 10.0; Win64; x64) AppleWebKit/537.36 (KHTML, like Gecko) Chrome/110.0.0.0 Safari/537.36" etag="tP-Hqznl8tq6CiI3YNqW" version="20.8.20" type="github">
  <diagram id="Ht1M8jgEwFfnCIfOTk4-" name="Page-1">
    <mxGraphModel dx="1232" dy="1049" grid="1" gridSize="10" guides="1" tooltips="1" connect="1" arrows="1" fold="1" page="1" pageScale="1" pageWidth="1169" pageHeight="827" math="0" shadow="0">
      <root>
        <mxCell id="0" />
        <mxCell id="1" parent="0" />
        <mxCell id="Fb7Zcka14E9r6GSMAiqo-28" value="" style="group" vertex="1" connectable="0" parent="1">
          <mxGeometry x="120" y="320" width="180" height="300" as="geometry" />
        </mxCell>
        <mxCell id="Fb7Zcka14E9r6GSMAiqo-27" value="&amp;nbsp; &amp;nbsp; User Machine" style="rounded=1;whiteSpace=wrap;html=1;align=left;verticalAlign=top;fillColor=#d5e8d4;strokeColor=#82b366;" vertex="1" parent="Fb7Zcka14E9r6GSMAiqo-28">
          <mxGeometry width="180" height="300" as="geometry" />
        </mxCell>
        <mxCell id="Fb7Zcka14E9r6GSMAiqo-1" value="Browser" style="sketch=0;pointerEvents=1;shadow=0;dashed=0;html=1;strokeColor=none;fillColor=#434445;aspect=fixed;labelPosition=center;verticalLabelPosition=bottom;verticalAlign=top;align=center;outlineConnect=0;shape=mxgraph.vvd.web_browser;" vertex="1" parent="Fb7Zcka14E9r6GSMAiqo-28">
          <mxGeometry x="50" y="49" width="80" height="56.8" as="geometry" />
        </mxCell>
        <mxCell id="Fb7Zcka14E9r6GSMAiqo-2" value="User Data" style="image;html=1;image=img/lib/clip_art/computers/Database_128x128.png" vertex="1" parent="Fb7Zcka14E9r6GSMAiqo-28">
          <mxGeometry x="50" y="193" width="80" height="80" as="geometry" />
        </mxCell>
        <mxCell id="Fb7Zcka14E9r6GSMAiqo-4" value="Cloud host (or local container)" style="points=[[0,0],[0.25,0],[0.5,0],[0.75,0],[1,0],[1,0.25],[1,0.5],[1,0.75],[1,1],[0.75,1],[0.5,1],[0.25,1],[0,1],[0,0.75],[0,0.5],[0,0.25]];outlineConnect=0;gradientColor=none;html=1;whiteSpace=wrap;fontSize=12;fontStyle=0;container=1;pointerEvents=0;collapsible=0;recursiveResize=0;shape=mxgraph.aws4.group;grIcon=mxgraph.aws4.group_aws_cloud;strokeColor=#232F3E;fillColor=none;verticalAlign=top;align=left;spacingLeft=30;fontColor=#232F3E;dashed=0;" vertex="1" parent="1">
          <mxGeometry x="360" y="90" width="760" height="420" as="geometry" />
        </mxCell>
        <mxCell id="Fb7Zcka14E9r6GSMAiqo-7" value="View Model" style="swimlane;whiteSpace=wrap;html=1;" vertex="1" parent="Fb7Zcka14E9r6GSMAiqo-4">
          <mxGeometry x="279" y="70" width="200" height="240" as="geometry" />
        </mxCell>
        <mxCell id="Fb7Zcka14E9r6GSMAiqo-9" value="Synchronizes browser view and model data" style="text;strokeColor=none;align=center;fillColor=none;html=1;verticalAlign=middle;whiteSpace=wrap;rounded=0;flipV=1;" vertex="1" parent="Fb7Zcka14E9r6GSMAiqo-7">
          <mxGeometry x="30" y="40" width="140" height="30" as="geometry" />
        </mxCell>
        <mxCell id="Fb7Zcka14E9r6GSMAiqo-10" value="Provides UI for inputting and managing data" style="text;strokeColor=none;align=center;fillColor=none;html=1;verticalAlign=middle;whiteSpace=wrap;rounded=0;flipV=1;" vertex="1" parent="Fb7Zcka14E9r6GSMAiqo-7">
          <mxGeometry x="30" y="85" width="140" height="30" as="geometry" />
        </mxCell>
        <mxCell id="Fb7Zcka14E9r6GSMAiqo-11" value="Provides vehicle for graphics ouput when GUI is available" style="text;strokeColor=none;align=center;fillColor=none;html=1;verticalAlign=middle;whiteSpace=wrap;rounded=0;flipV=1;" vertex="1" parent="Fb7Zcka14E9r6GSMAiqo-7">
          <mxGeometry x="30" y="120" width="140" height="50" as="geometry" />
        </mxCell>
        <mxCell id="Fb7Zcka14E9r6GSMAiqo-12" value="Calls data methods on user input" style="text;strokeColor=none;align=center;fillColor=none;html=1;verticalAlign=middle;whiteSpace=wrap;rounded=0;flipV=1;" vertex="1" parent="Fb7Zcka14E9r6GSMAiqo-7">
          <mxGeometry x="30" y="170" width="140" height="50" as="geometry" />
        </mxCell>
        <mxCell id="Fb7Zcka14E9r6GSMAiqo-13" value="Data" style="swimlane;whiteSpace=wrap;html=1;" vertex="1" parent="Fb7Zcka14E9r6GSMAiqo-4">
          <mxGeometry x="517" y="70" width="200" height="240" as="geometry" />
        </mxCell>
        <mxCell id="Fb7Zcka14E9r6GSMAiqo-14" value="Reads/saves data to user file" style="text;strokeColor=none;align=center;fillColor=none;html=1;verticalAlign=middle;whiteSpace=wrap;rounded=0;flipV=1;" vertex="1" parent="Fb7Zcka14E9r6GSMAiqo-13">
          <mxGeometry x="30" y="40" width="140" height="30" as="geometry" />
        </mxCell>
        <mxCell id="Fb7Zcka14E9r6GSMAiqo-15" value="Caches data in some data structure (DB, DF, ?)" style="text;strokeColor=none;align=center;fillColor=none;html=1;verticalAlign=middle;whiteSpace=wrap;rounded=0;flipV=1;" vertex="1" parent="Fb7Zcka14E9r6GSMAiqo-13">
          <mxGeometry x="30" y="85" width="140" height="30" as="geometry" />
        </mxCell>
        <mxCell id="Fb7Zcka14E9r6GSMAiqo-16" value="Has methods to manipulate data (all calcs happen here)" style="text;strokeColor=none;align=center;fillColor=none;html=1;verticalAlign=middle;whiteSpace=wrap;rounded=0;flipV=1;" vertex="1" parent="Fb7Zcka14E9r6GSMAiqo-13">
          <mxGeometry x="30" y="120" width="140" height="50" as="geometry" />
        </mxCell>
        <mxCell id="Fb7Zcka14E9r6GSMAiqo-17" value="Calls data methods on user input" style="text;strokeColor=none;align=center;fillColor=none;html=1;verticalAlign=middle;whiteSpace=wrap;rounded=0;flipV=1;" vertex="1" parent="Fb7Zcka14E9r6GSMAiqo-13">
          <mxGeometry x="30" y="170" width="140" height="50" as="geometry" />
        </mxCell>
        <mxCell id="Fb7Zcka14E9r6GSMAiqo-18" value="View" style="swimlane;whiteSpace=wrap;html=1;" vertex="1" parent="Fb7Zcka14E9r6GSMAiqo-4">
          <mxGeometry x="40" y="70" width="200" height="240" as="geometry" />
        </mxCell>
        <mxCell id="Fb7Zcka14E9r6GSMAiqo-19" value="Holds DOM for browser" style="text;strokeColor=none;align=center;fillColor=none;html=1;verticalAlign=middle;whiteSpace=wrap;rounded=0;flipV=1;" vertex="1" parent="Fb7Zcka14E9r6GSMAiqo-18">
          <mxGeometry x="30" y="40" width="140" height="30" as="geometry" />
        </mxCell>
        <mxCell id="Fb7Zcka14E9r6GSMAiqo-20" value="Hosts UI" style="text;strokeColor=none;align=center;fillColor=none;html=1;verticalAlign=middle;whiteSpace=wrap;rounded=0;flipV=1;" vertex="1" parent="Fb7Zcka14E9r6GSMAiqo-18">
          <mxGeometry x="30" y="85" width="140" height="30" as="geometry" />
        </mxCell>
        <mxCell id="Fb7Zcka14E9r6GSMAiqo-21" value="Hosts controls" style="text;strokeColor=none;align=center;fillColor=none;html=1;verticalAlign=middle;whiteSpace=wrap;rounded=0;flipV=1;" vertex="1" parent="Fb7Zcka14E9r6GSMAiqo-18">
          <mxGeometry x="30" y="120" width="140" height="50" as="geometry" />
        </mxCell>
        <mxCell id="Fb7Zcka14E9r6GSMAiqo-30" value="" style="shape=flexArrow;endArrow=classic;startArrow=classic;html=1;rounded=0;fillColor=#dae8fc;strokeColor=#6c8ebf;exitX=1;exitY=0.5;exitDx=0;exitDy=0;entryX=0;entryY=0.5;entryDx=0;entryDy=0;" edge="1" parent="Fb7Zcka14E9r6GSMAiqo-4" source="Fb7Zcka14E9r6GSMAiqo-18" target="Fb7Zcka14E9r6GSMAiqo-7">
          <mxGeometry width="100" height="100" relative="1" as="geometry">
            <mxPoint x="290" y="-39" as="sourcePoint" />
            <mxPoint x="440" y="-140" as="targetPoint" />
          </mxGeometry>
        </mxCell>
        <mxCell id="Fb7Zcka14E9r6GSMAiqo-31" value="" style="shape=flexArrow;endArrow=classic;startArrow=classic;html=1;rounded=0;fillColor=#dae8fc;strokeColor=#6c8ebf;entryX=0;entryY=0.5;entryDx=0;entryDy=0;exitX=1;exitY=0.5;exitDx=0;exitDy=0;" edge="1" parent="Fb7Zcka14E9r6GSMAiqo-4" source="Fb7Zcka14E9r6GSMAiqo-7" target="Fb7Zcka14E9r6GSMAiqo-13">
          <mxGeometry width="100" height="100" relative="1" as="geometry">
            <mxPoint x="470" y="190" as="sourcePoint" />
            <mxPoint x="289" y="200" as="targetPoint" />
          </mxGeometry>
        </mxCell>
        <mxCell id="Fb7Zcka14E9r6GSMAiqo-23" value="" style="shape=flexArrow;endArrow=classic;startArrow=classic;html=1;rounded=0;fillColor=#dae8fc;strokeColor=#6c8ebf;" edge="1" parent="1" source="Fb7Zcka14E9r6GSMAiqo-1">
          <mxGeometry width="100" height="100" relative="1" as="geometry">
            <mxPoint x="530" y="470" as="sourcePoint" />
            <mxPoint x="400" y="270" as="targetPoint" />
          </mxGeometry>
        </mxCell>
        <mxCell id="Fb7Zcka14E9r6GSMAiqo-29" value="" style="shape=flexArrow;endArrow=classic;startArrow=classic;html=1;rounded=0;fillColor=#dae8fc;strokeColor=#6c8ebf;entryX=0.5;entryY=1;entryDx=0;entryDy=0;" edge="1" parent="1" target="Fb7Zcka14E9r6GSMAiqo-13">
          <mxGeometry width="100" height="100" relative="1" as="geometry">
            <mxPoint x="240" y="551" as="sourcePoint" />
            <mxPoint x="390" y="450" as="targetPoint" />
          </mxGeometry>
        </mxCell>
        <mxCell id="Fb7Zcka14E9r6GSMAiqo-32" value="Interim Data Entry" style="swimlane;whiteSpace=wrap;html=1;startSize=23;" vertex="1" parent="1">
          <mxGeometry x="450" y="540" width="200" height="130" as="geometry" />
        </mxCell>
        <mxCell id="Fb7Zcka14E9r6GSMAiqo-33" value="Reads/saves data to user file" style="text;strokeColor=none;align=center;fillColor=none;html=1;verticalAlign=middle;whiteSpace=wrap;rounded=0;flipV=1;" vertex="1" parent="Fb7Zcka14E9r6GSMAiqo-32">
          <mxGeometry x="30" y="40" width="140" height="30" as="geometry" />
        </mxCell>
        <mxCell id="Fb7Zcka14E9r6GSMAiqo-34" value="Done with spreadsheet, editor, Jupyter or something" style="text;strokeColor=none;align=center;fillColor=none;html=1;verticalAlign=middle;whiteSpace=wrap;rounded=0;flipV=1;" vertex="1" parent="Fb7Zcka14E9r6GSMAiqo-32">
          <mxGeometry x="30" y="85" width="140" height="30" as="geometry" />
        </mxCell>
        <mxCell id="Fb7Zcka14E9r6GSMAiqo-41" value="" style="group" vertex="1" connectable="0" parent="1">
          <mxGeometry x="240" y="670" width="200" height="150" as="geometry" />
        </mxCell>
        <mxCell id="Fb7Zcka14E9r6GSMAiqo-37" value="Interim View" style="swimlane;whiteSpace=wrap;html=1;startSize=23;" vertex="1" parent="Fb7Zcka14E9r6GSMAiqo-41">
          <mxGeometry width="200" height="150" as="geometry" />
        </mxCell>
        <mxCell id="Fb7Zcka14E9r6GSMAiqo-38" value="Reads user data" style="text;strokeColor=none;align=center;fillColor=none;html=1;verticalAlign=middle;whiteSpace=wrap;rounded=0;flipV=1;" vertex="1" parent="Fb7Zcka14E9r6GSMAiqo-37">
          <mxGeometry x="30" y="40" width="140" height="30" as="geometry" />
        </mxCell>
        <mxCell id="Fb7Zcka14E9r6GSMAiqo-40" value="Has methods to maniuplate data" style="text;strokeColor=none;align=center;fillColor=none;html=1;verticalAlign=middle;whiteSpace=wrap;rounded=0;flipV=1;" vertex="1" parent="Fb7Zcka14E9r6GSMAiqo-41">
          <mxGeometry x="30" y="75" width="140" height="30" as="geometry" />
        </mxCell>
        <mxCell id="Fb7Zcka14E9r6GSMAiqo-39" value="Plots data on terminal" style="text;strokeColor=none;align=center;fillColor=none;html=1;verticalAlign=middle;whiteSpace=wrap;rounded=0;flipV=1;" vertex="1" parent="Fb7Zcka14E9r6GSMAiqo-41">
          <mxGeometry x="30" y="110" width="140" height="30" as="geometry" />
        </mxCell>
        <mxCell id="Fb7Zcka14E9r6GSMAiqo-42" value="" style="shape=flexArrow;endArrow=classic;startArrow=classic;html=1;rounded=0;fillColor=#dae8fc;strokeColor=#6c8ebf;entryX=0;entryY=0.5;entryDx=0;entryDy=0;exitX=1;exitY=0.75;exitDx=0;exitDy=0;" edge="1" parent="1" source="Fb7Zcka14E9r6GSMAiqo-2" target="Fb7Zcka14E9r6GSMAiqo-32">
          <mxGeometry width="100" height="100" relative="1" as="geometry">
            <mxPoint x="250" y="561" as="sourcePoint" />
            <mxPoint x="987" y="410" as="targetPoint" />
          </mxGeometry>
        </mxCell>
        <mxCell id="Fb7Zcka14E9r6GSMAiqo-43" value="" style="shape=flexArrow;endArrow=classic;startArrow=classic;html=1;rounded=0;fillColor=#dae8fc;strokeColor=#6c8ebf;exitX=1;exitY=1;exitDx=0;exitDy=0;" edge="1" parent="1" source="Fb7Zcka14E9r6GSMAiqo-2">
          <mxGeometry width="100" height="100" relative="1" as="geometry">
            <mxPoint x="260" y="583" as="sourcePoint" />
            <mxPoint x="330" y="670" as="targetPoint" />
          </mxGeometry>
        </mxCell>
      </root>
    </mxGraphModel>
  </diagram>
</mxfile>
